<?xml version="1.0" encoding="UTF-8"?>
<svg id="Ebene_2" data-name="Ebene 2" xmlns="http://www.w3.org/2000/svg" viewBox="0 0 794.6 58.95">
  <defs>
    <style>
      .cls-1 {
        fill: #022a3e;
      }
    </style>
  </defs>
  <g id="Ebene_1-2" data-name="Ebene 1">
    <path class="cls-1" d="M794.6,5.62c-2.4,1.27-4.69,1.88-6.37-1.07-.51-.89-1.41-.93-2.29-.95-1.12-.03-2.25-.03-3.37-.03-116.37,0-232.74,.02-349.11-.1-4.35,0-6.61,1.28-8.51,5.18-8.22,16.86-16.79,33.54-25.24,50.29-.75,0-1.5,0-2.25,0-8.83-17.52-17.69-35.03-26.46-52.58-1.03-2.05-2.37-3.05-4.67-2.79-.62,.07-1.25,0-1.87,0-117.5,0-234.99,0-352.49,.01-2.26,0-4.56-.53-6.22,2.13-.92,1.48-3.32,1.27-4.74,.13C-.37,4.72-.18,2.77,.64,1.42,1.74-.39,4.23-.29,5.29,.71c2.5,2.34,5.32,1.75,8.09,1.75,255.97,.02,511.94,.02,767.9,0,2.89,0,5.84,.59,8.45-1.79,1.13-1.03,3.35-.75,4.87,.51V5.62ZM397.16,53.3c.28-.03,.56-.06,.83-.08,0-15.83,0-31.67,0-47.5,0-1.85-1.34-2.13-2.83-2.13-6.73,0-13.45,.03-20.18-.02-2.19-.02-2.62,.72-1.63,2.65,7.97,15.68,15.89,31.39,23.82,47.08Zm1.99-.1l.86,.14c7.93-15.7,15.84-31.4,23.82-47.08,1.21-2.39,.14-2.71-1.93-2.7-6.23,.04-12.46,.13-18.68-.04-3.03-.08-4.19,.87-4.13,3.98,.17,8.12,.06,16.25,.06,24.37,0,7.11,0,14.21,0,21.32Z"/>
  </g>
</svg>