<?xml version="1.0" encoding="UTF-8"?>
<svg id="Ebene_2" data-name="Ebene 2" xmlns="http://www.w3.org/2000/svg" viewBox="0 0 433.4 434.2">
  <defs>
    <style>
      .cls-1, .cls-2, .cls-3, .cls-4, .cls-5, .cls-6, .cls-7 {
        fill: none;
      }

      .cls-1, .cls-2, .cls-8, .cls-5, .cls-6 {
        stroke: #022a3e;
      }

      .cls-1, .cls-3, .cls-4 {
        stroke-width: 2px;
      }

      .cls-1, .cls-3, .cls-6 {
        stroke-linecap: round;
        stroke-linejoin: round;
      }

      .cls-9, .cls-10 {
        fill: #e5964e;
      }

      .cls-2 {
        stroke-width: 5px;
      }

      .cls-2, .cls-8, .cls-4, .cls-5, .cls-7, .cls-10 {
        stroke-miterlimit: 10;
      }

      .cls-3, .cls-4, .cls-7, .cls-10 {
        stroke: #e5964e;
      }

      .cls-8 {
        fill: #022a3e;
        stroke-width: 3px;
      }

      .cls-5 {
        stroke-width: 7px;
      }

      .cls-6 {
        stroke-width: 4px;
      }

      .cls-7 {
        stroke-width: 2.01px;
      }
    </style>
  </defs>
  <g id="outer_ring" data-name="outer ring">
    <path class="cls-7" d="M197.1,8.2C97.9,17.4,18.9,96.3,9,195.5"/>
    <circle class="cls-9" cx="9.1" cy="195.3" r="3.8"/>
    <path class="cls-7" d="M8.3,236.7c9.3,99.4,87.9,178.6,187,188.5"/>
    <circle class="cls-9" cx="8.4" cy="236.8" r="3.8"/>
    <circle class="cls-9" cx="195.1" cy="425.1" r="3.8"/>
    <path class="cls-1" d="M15.6,216.9c-4,0-7.3,3.3-7.3,7.3,0-4-3.3-7.3-7.3-7.3,4,0,7.3-3.3,7.3-7.3,0,4.1,3.2,7.3,7.3,7.3Z"/>
    <path class="cls-7" d="M236.3,425.9c99.2-9.3,178.2-88.1,188.1-187.4"/>
    <circle class="cls-9" cx="236.5" cy="425.8" r="3.8"/>
    <circle class="cls-9" cx="424.3" cy="238.7" r="3.8"/>
    <path class="cls-1" d="M216.6,418.6c0,4,3.3,7.3,7.3,7.3-4,0-7.3,3.3-7.3,7.3,0-4-3.3-7.3-7.3-7.3,4.1,0,7.3-3.3,7.3-7.3Z"/>
    <path class="cls-7" d="M425.1,197.4C415.8,98,337.2,18.8,238.1,8.9"/>
    <circle class="cls-9" cx="425" cy="197.2" r="3.8"/>
    <path class="cls-1" d="M417.8,217.1c4,0,7.3-3.3,7.3-7.3,0,4,3.3,7.3,7.3,7.3-4,0-7.3,3.3-7.3,7.3,0-4-3.2-7.3-7.3-7.3Z"/>
    <ellipse class="cls-6" cx="216.1" cy="217" rx="195.3" ry="195.8"/>
    <ellipse class="cls-6" cx="216.1" cy="217" rx="157.7" ry="158"/>
    <line class="cls-6" x1="77.9" y1="218.3" x2="111.8" y2="218.3"/>
    <line class="cls-6" x1="321.7" y1="218.3" x2="355.6" y2="218.3"/>
    <g>
      <line class="cls-5" x1="114.5" y1="303.9" x2="164.6" y2="303.9"/>
      <polyline class="cls-5" points="129.6 303.5 215.6 115.6 301.6 303.9"/>
      <line class="cls-5" x1="314.9" y1="303.5" x2="266.6" y2="303.5"/>
      <path class="cls-5" d="M150.4,303.5c1.8-2.2,31.5-68.9,31.5-68.9h71.8l27.5,68.9"/>
      <line class="cls-5" x1="190.8" y1="250.6" x2="241.3" y2="250.6"/>
      <line class="cls-5" x1="190.8" y1="207.6" x2="241.3" y2="207.6"/>
      <line class="cls-5" x1="167.7" y1="220.9" x2="263.7" y2="220.9"/>
    </g>
    <g>
      <path class="cls-8" d="M69,295.1c1.1,2.1,1.5,4.5,1.2,6.7l-2.1-.4c.3-1.9,0-3.7-.9-5.4-2.1-4-6.1-5.3-10.1-3.2-4.2,2.2-5.6,6.2-3.5,10.3,1,1.9,2.5,3.2,4.3,3.9l-.6,2c-2.3-.9-4.2-2.6-5.4-5.1-2.7-5.2-1-10.6,4.2-13.3,4.9-2.5,10.2-.7,12.9,4.5Z"/>
      <path class="cls-8" d="M79.9,313.7l5,6.5c3,4,1.9,7.1-.3,8.8-1.8,1.4-4.3,1.7-6.7-.1l-3.7,8.1-1.6-2.1,3.7-7.6-.2-.2-3.6-4.7-6,4.6-1.5-1.9,14.9-11.4Zm-2.4,12.2c1.9,2.5,4.2,2.3,5.6,1.2,1.5-1.2,2.2-3.2,.2-5.7l-3.5-4.6-5.9,4.5,3.6,4.6Z"/>
      <path class="cls-8" d="M103.4,340.3l2.1,1.9-7.1,18.8-1.9-1.7,1.8-4.6-6.7-6-4.4,2.2-1.9-1.8,18.1-8.8Zm-10,7.5l5.6,5.1,3.9-9.9h0l-9.5,4.8Z"/>
      <path class="cls-8" d="M129.6,359.8c2,1.3,3.6,3.1,4.4,5.2l-2,.7c-.7-1.7-1.9-3.2-3.5-4.2-3.8-2.4-7.9-1.5-10.3,2.4-2.5,4-1.7,8.2,2.2,10.7,1.8,1.1,3.8,1.5,5.7,1.2l.5,2.1c-2.5,.4-4.9-.1-7.3-1.6-5-3.1-6.2-8.6-3.1-13.6,3-4.9,8.4-6,13.4-2.9Z"/>
      <path class="cls-8" d="M148.4,370.2l2.2,.9-3.9,9.7,12.7-6.2,2.6,1-8.5,4.1,2.3,13.5-2.6-1-1.8-11.5-5.7,2.8-2,4.9-2.2-.9,6.9-17.3Z"/>
      <path class="cls-8" d="M199.6,385.8l-7.1-.7,.2-2,16.5,1.5-.2,2-7.1-.7-1.5,16.6-2.4-.2,1.6-16.5Z"/>
      <path class="cls-8" d="M223.1,384.7l2.4-.2,.7,8.2,10.2-.8-.7-8.2,2.4-.2,1.5,18.6-2.4,.2-.7-8.5-10.2,.8,.7,8.5-2.4,.2-1.5-18.6Z"/>
      <path class="cls-8" d="M253.3,380.7l13-3.4,.5,2-10.7,2.8,1.6,6,9.6-2.6,.5,1.8-9.6,2.6,1.7,6.3,10.9-2.9,.5,2-13.2,3.5-4.8-18.1Z"/>
      <path class="cls-8" d="M304.5,359.3c2.1-1.3,4.4-1.8,6.6-1.6l-.2,2.1c-1.9-.1-3.7,.2-5.3,1.2-3.8,2.3-4.9,6.5-2.5,10.3,2.5,4,6.6,5.2,10.5,2.8,1.8-1.1,3-2.7,3.6-4.6l2,.5c-.7,2.4-2.3,4.4-4.7,5.8-5,3.1-10.5,1.7-13.5-3.3-2.9-4.7-1.5-10.1,3.5-13.2Z"/>
      <path class="cls-8" d="M328.3,341.5c4.1-3.7,9.8-3.8,13.7,.5,4,4.5,3.4,10.1-.7,13.9-4.1,3.7-9.8,3.7-13.8-.7-4-4.4-3.3-10,.8-13.7Zm11.6,12.9c3.1-2.8,3.5-7.1,.3-10.8-3.1-3.4-7.5-3.4-10.5-.7-3.1,2.8-3.5,7.1-.4,10.6,3.1,3.6,7.5,3.7,10.6,.9Z"/>
      <path class="cls-8" d="M345.5,324.2l3.4-4.5c4.1-5.4,9.1-6.3,13.7-2.8,4.7,3.6,5.5,8.4,1.2,14.1l-3.4,4.5-14.9-11.3Zm16.8,5.5c3.2-4.2,2.5-8.1-1.2-10.9-3.6-2.7-7.5-2.2-10.6,1.9l-2.1,2.7,11.8,9,2.1-2.7Z"/>
      <path class="cls-8" d="M362.8,298.9l6.1-12,1.8,.9-5,9.9,5.5,2.8,4.5-8.9,1.7,.9-4.5,8.9,5.8,3,5.1-10,1.8,.9-6.2,12.2-16.6-8.6Z"/>
    </g>
    <g>
      <path class="cls-2" d="M53.7,280.6c-.2,0-.5-.1-.6-.4-6.1-15.8-9.8-32.4-11.1-49.3,0-.3,.2-.6,.6-.7,.3-.1,.6,.2,.7,.6,1.3,16.8,5,33.3,11.1,48.9,.1,.3,0,.7-.3,.8-.2,.1-.3,.1-.4,.1Z"/>
      <path class="cls-2" d="M379.7,280.6h-.2c-.3-.1-.5-.5-.3-.8,6-15.7,9.8-32.1,11.1-48.9,0-.3,.3-.6,.7-.6,.3,0,.6,.3,.6,.7-1.3,16.9-5.1,33.5-11.1,49.3-.4,.1-.6,.3-.8,.3Z"/>
      <path class="cls-2" d="M53.7,280.6c-.2,0-.5-.1-.6-.4-6.1-15.8-9.8-32.4-11.1-49.3,0-.3,.2-.6,.6-.7,.3-.1,.6,.2,.7,.6,1.3,16.8,5,33.3,11.1,48.9,.1,.3,0,.7-.3,.8-.2,.1-.3,.1-.4,.1Z"/>
      <path class="cls-2" d="M379.7,280.6h-.2c-.3-.1-.5-.5-.3-.8,6-15.7,9.8-32.1,11.1-48.9,0-.3,.3-.6,.7-.6,.3,0,.6,.3,.6,.7-1.3,16.9-5.1,33.5-11.1,49.3-.4,.1-.6,.3-.8,.3Z"/>
    </g>
    <path class="cls-3" d="M139.6,130.2c0-4-3.3-7.3-7.3-7.3,4,0,7.3-3.3,7.3-7.3,0,4,3.3,7.3,7.3,7.3-4,0-7.3,3.3-7.3,7.3Z"/>
    <path class="cls-3" d="M216.8,342.9c0-4-3.3-7.3-7.3-7.3,4,0,7.3-3.3,7.3-7.3,0,4,3.3,7.3,7.3,7.3-4,0-7.3,3.2-7.3,7.3Z"/>
    <path class="cls-3" d="M322.3,194.2c0-4-3.3-7.3-7.3-7.3,4,0,7.3-3.3,7.3-7.3,0,4,3.3,7.3,7.3,7.3-4,0-7.3,3.3-7.3,7.3Z"/>
    <path class="cls-4" d="M262.4,115.2c0-9.1,7.4-16.5,16.5-16.5,1.9,0,3.7,.3,5.3,.9-3.5-3-8.1-4.8-13.1-4.8-11.3,0-20.4,9.1-20.4,20.4s9.1,20.4,20.4,20.4c5,0,9.5-1.8,13.1-4.8-1.7,.6-3.5,.9-5.3,.9-9.1,0-16.5-7.4-16.5-16.5Z"/>
    <path class="cls-4" d="M303.5,132.1c0,9.1-7.4,16.5-16.5,16.5-1.9,0-3.7-.3-5.3-.9,3.5,3,8.1,4.8,13.1,4.8,11.3,0,20.4-9.1,20.4-20.4s-9.1-20.4-20.4-20.4c-5,0-9.6,1.8-13.1,4.8,1.7-.6,3.5-.9,5.3-.9,9.2-.1,16.5,7.3,16.5,16.5Z"/>
    <path class="cls-3" d="M121.8,156.1c0-4-3.3-7.3-7.3-7.3,4,0,7.3-3.3,7.3-7.3,0,4,3.3,7.3,7.3,7.3-4,0-7.3,3.3-7.3,7.3Z"/>
    <circle class="cls-10" cx="196.1" cy="8.4" r="3.8"/>
    <path class="cls-1" d="M215.9,15.6c0-4-3.3-7.3-7.3-7.3,4,0,7.3-3.3,7.3-7.3,0,4,3.3,7.3,7.3,7.3-4,0-7.3,3.2-7.3,7.3Z"/>
    <circle class="cls-10" cx="237.5" cy="9.1" r="3.8"/>
  </g>
</svg>