<?xml version="1.0" encoding="UTF-8"?>
<svg id="Ebene_2" data-name="Ebene 2" xmlns="http://www.w3.org/2000/svg" viewBox="0 0 433.54 434.47">
  <defs>
    <style>
      .cls-1 {
        stroke-width: 2.01px;
      }

      .cls-1, .cls-2, .cls-3, .cls-4, .cls-5, .cls-6, .cls-7, .cls-8 {
        stroke: #fff;
      }

      .cls-1, .cls-2, .cls-3, .cls-4, .cls-5, .cls-7 {
        stroke-miterlimit: 10;
      }

      .cls-1, .cls-2, .cls-3, .cls-5, .cls-6, .cls-8 {
        fill: none;
      }

      .cls-2 {
        stroke-width: 7px;
      }

      .cls-3 {
        stroke-width: 5px;
      }

      .cls-4 {
        fill: #022a3e;
        stroke-width: 3px;
      }

      .cls-5, .cls-6 {
        stroke-width: 2px;
      }

      .cls-6, .cls-8 {
        stroke-linecap: round;
        stroke-linejoin: round;
      }

      .cls-7 {
        fill: #fff;
      }

      .cls-8 {
        stroke-width: 4px;
      }
    </style>
  </defs>
  <g id="outer_ring" data-name="outer ring">
    <path class="cls-1" d="M197.16,8.37C97.96,17.65,18.92,96.49,9.07,195.74"/>
    <circle class="cls-7" cx="196.98" cy="8.44" r="3.79"/>
    <circle class="cls-7" cx="9.14" cy="195.55" r="3.79"/>
    <path class="cls-6" d="M216.84,15.67c-.01-4.05-3.29-7.32-7.32-7.34,4.04,0,7.31-3.29,7.32-7.33,.01,4.05,3.28,7.32,7.32,7.33-4.04,0-7.31,3.29-7.32,7.34Z"/>
    <path class="cls-1" d="M8.35,236.88c9.26,99.42,87.93,178.63,186.95,188.51"/>
    <circle class="cls-7" cx="8.42" cy="237.06" r="3.79"/>
    <circle class="cls-7" cx="195.13" cy="425.31" r="3.79"/>
    <path class="cls-6" d="M15.64,217.16c-4.04,.01-7.31,3.29-7.32,7.34,0-4.05-3.28-7.33-7.32-7.34,4.04-.01,7.31-3.29,7.32-7.34,0,4.05,3.28,7.33,7.32,7.34Z"/>
    <path class="cls-1" d="M236.38,426.1c99.2-9.28,178.24-88.12,188.09-187.36"/>
    <circle class="cls-7" cx="236.56" cy="426.03" r="3.79"/>
    <circle class="cls-7" cx="424.4" cy="238.92" r="3.79"/>
    <path class="cls-6" d="M216.7,418.8c.01,4.05,3.28,7.33,7.32,7.33-4.04,0-7.31,3.29-7.32,7.33-.01-4.05-3.28-7.33-7.32-7.33,4.04-.01,7.31-3.29,7.32-7.33Z"/>
    <path class="cls-1" d="M425.18,197.59C415.92,98.17,337.26,18.97,238.23,9.09"/>
    <circle class="cls-7" cx="425.11" cy="197.41" r="3.79"/>
    <circle class="cls-7" cx="238.41" cy="9.16" r="3.79"/>
    <path class="cls-6" d="M417.9,217.31c4.04-.01,7.31-3.29,7.32-7.34,0,4.05,3.28,7.33,7.32,7.34-4.04,.01-7.31,3.29-7.32,7.34-.01-4.05-3.28-7.33-7.32-7.34Z"/>
    <ellipse class="cls-8" cx="216.14" cy="217.24" rx="195.35" ry="195.77"/>
    <ellipse class="cls-8" cx="216.14" cy="217.23" rx="157.66" ry="158"/>
    <line class="cls-8" x1="77.95" y1="218.49" x2="111.87" y2="218.49"/>
    <line class="cls-8" x1="321.75" y1="218.49" x2="355.66" y2="218.49"/>
    <g>
      <line class="cls-2" x1="114.6" y1="304.15" x2="164.7" y2="304.15"/>
      <polyline class="cls-2" points="129.67 303.71 215.67 115.78 301.68 304.15"/>
      <line class="cls-2" x1="314.97" y1="303.71" x2="266.65" y2="303.71"/>
      <path class="cls-2" d="M150.51,303.71c1.78-2.22,31.47-68.86,31.47-68.86h71.82l27.48,68.86"/>
      <line class="cls-2" x1="190.85" y1="250.84" x2="241.39" y2="250.84"/>
      <line class="cls-2" x1="190.85" y1="207.84" x2="241.39" y2="207.84"/>
      <line class="cls-2" x1="167.8" y1="221.08" x2="263.78" y2="221.08"/>
    </g>
    <g>
      <path class="cls-4" d="M69.08,295.3c1.11,2.14,1.53,4.48,1.19,6.72l-2.06-.39c.28-1.85,.02-3.68-.86-5.4-2.06-3.99-6.1-5.31-10.11-3.23-4.19,2.17-5.64,6.24-3.54,10.3,.98,1.89,2.48,3.23,4.3,3.9l-.65,2.01c-2.34-.87-4.18-2.64-5.45-5.08-2.7-5.24-.96-10.59,4.22-13.28,4.98-2.58,10.27-.77,12.96,4.45Z"/>
      <path class="cls-4" d="M79.92,313.89l5.02,6.51c3.05,3.95,1.91,7.07-.28,8.77-1.77,1.37-4.29,1.69-6.69-.07l-3.65,8.12-1.61-2.09,3.66-7.59-.19-.24-3.61-4.69-5.95,4.61-1.46-1.89,14.77-11.44Zm-2.4,12.18c1.94,2.51,4.17,2.34,5.64,1.2,1.52-1.18,2.18-3.21,.24-5.72l-3.55-4.6-5.87,4.55,3.53,4.58Z"/>
      <path class="cls-4" d="M103.46,340.53l2.12,1.92-7.06,18.84-1.91-1.73,1.77-4.6-6.66-6.05-4.37,2.24-1.93-1.75,18.03-8.88Zm-9.98,7.49l5.62,5.1,3.86-9.91-.04-.04-9.44,4.85Z"/>
      <path class="cls-4" d="M129.65,359.99c2.04,1.28,3.6,3.08,4.44,5.17l-1.97,.72c-.7-1.73-1.85-3.18-3.49-4.2-3.8-2.38-7.95-1.45-10.34,2.38-2.5,4.01-1.68,8.25,2.2,10.67,1.81,1.13,3.78,1.52,5.68,1.17l.47,2.06c-2.46,.45-4.94-.13-7.27-1.59-4.99-3.13-6.22-8.62-3.12-13.58,2.97-4.76,8.44-5.9,13.4-2.79Z"/>
      <path class="cls-4" d="M148.47,370.45l2.21,.88-3.85,9.71,12.68-6.2,2.58,1.03-8.52,4.14,2.32,13.52-2.6-1.04-1.8-11.48-5.74,2.77-1.95,4.92-2.21-.88,6.9-17.39Z"/>
      <path class="cls-4" d="M199.62,386.02l-7.05-.66,.19-2.02,16.5,1.55-.19,2.02-7.08-.66-1.55,16.61-2.37-.22,1.55-16.61Z"/>
      <path class="cls-4" d="M223.2,384.9l2.37-.2,.67,8.15,10.16-.84-.67-8.15,2.37-.2,1.53,18.65-2.37,.2-.7-8.5-10.16,.84,.7,8.5-2.37,.2-1.53-18.65Z"/>
      <path class="cls-4" d="M253.35,380.96l13-3.44,.52,1.96-10.7,2.83,1.58,5.99,9.64-2.55,.48,1.83-9.64,2.55,1.67,6.33,10.86-2.88,.52,1.96-13.16,3.49-4.78-18.09Z"/>
      <path class="cls-4" d="M304.58,359.55c2.06-1.25,4.36-1.84,6.61-1.64l-.24,2.09c-1.86-.15-3.66,.23-5.31,1.23-3.83,2.33-4.86,6.46-2.52,10.32,2.45,4.04,6.6,5.21,10.5,2.83,1.82-1.11,3.05-2.7,3.59-4.56l2.05,.51c-.71,2.4-2.34,4.36-4.68,5.79-5.03,3.06-10.48,1.69-13.51-3.31-2.91-4.8-1.47-10.21,3.53-13.25Z"/>
      <path class="cls-4" d="M328.35,341.68c4.08-3.68,9.8-3.76,13.66,.53,4.01,4.47,3.38,10.14-.75,13.86-4.12,3.71-9.82,3.74-13.83-.73-3.85-4.29-3.18-9.97,.92-13.66Zm11.59,12.92c3.06-2.76,3.52-7.12,.25-10.76-3.08-3.44-7.46-3.45-10.52-.69-3.06,2.76-3.52,7.12-.43,10.56,3.26,3.64,7.62,3.67,10.7,.89Z"/>
      <path class="cls-4" d="M345.56,324.46l3.42-4.52c4.11-5.44,9.11-6.25,13.68-2.78,4.7,3.57,5.46,8.45,1.2,14.08l-3.41,4.52-14.88-11.3Zm16.85,5.51c3.2-4.23,2.51-8.06-1.21-10.89-3.57-2.71-7.51-2.19-10.61,1.91l-2.06,2.73,11.82,8.98,2.06-2.73Z"/>
      <path class="cls-4" d="M362.9,299.11l6.11-12,1.8,.92-5.03,9.88,5.51,2.82,4.53-8.9,1.69,.86-4.53,8.9,5.82,2.97,5.1-10.03,1.8,.92-6.18,12.15-16.63-8.5Z"/>
    </g>
    <g>
      <path class="cls-3" d="M53.8,280.79c-.24,0-.47-.15-.56-.39-6.08-15.78-9.82-32.36-11.15-49.27-.03-.34,.22-.63,.56-.65,.33-.05,.63,.22,.65,.56,1.31,16.79,5.04,33.25,11.07,48.93,.12,.31-.03,.66-.35,.79-.07,.03-.15,.04-.22,.04Z"/>
      <path class="cls-3" d="M379.74,280.79c-.07,0-.15-.01-.22-.04-.31-.12-.47-.47-.35-.79,6.03-15.67,9.76-32.14,11.07-48.93,.03-.34,.32-.6,.65-.56,.33,.03,.58,.32,.56,.65-1.32,16.91-5.07,33.49-11.14,49.27-.09,.24-.32,.39-.57,.39Z"/>
      <path class="cls-3" d="M53.8,280.79c-.24,0-.47-.15-.56-.39-6.08-15.78-9.82-32.36-11.15-49.27-.03-.34,.22-.63,.56-.65,.33-.05,.63,.22,.65,.56,1.31,16.79,5.04,33.25,11.07,48.93,.12,.31-.03,.66-.35,.79-.07,.03-.15,.04-.22,.04Z"/>
      <path class="cls-3" d="M379.74,280.79c-.07,0-.15-.01-.22-.04-.31-.12-.47-.47-.35-.79,6.03-15.67,9.76-32.14,11.07-48.93,.03-.34,.32-.6,.65-.56,.33,.03,.58,.32,.56,.65-1.32,16.91-5.07,33.49-11.14,49.27-.09,.24-.32,.39-.57,.39Z"/>
    </g>
    <path class="cls-6" d="M139.65,130.45c-.01-4.05-3.29-7.33-7.32-7.33,4.04,0,7.31-3.29,7.32-7.33,.01,4.05,3.28,7.32,7.32,7.33-4.04,0-7.31,3.29-7.32,7.33Z"/>
    <path class="cls-6" d="M216.84,343.1c-.01-4.05-3.29-7.33-7.32-7.33,4.04,0,7.31-3.29,7.32-7.33,.01,4.05,3.28,7.33,7.32,7.33-4.04,0-7.31,3.29-7.32,7.33Z"/>
    <path class="cls-6" d="M322.37,194.42c-.01-4.05-3.29-7.33-7.32-7.34,4.04,0,7.31-3.29,7.32-7.33,.01,4.05,3.28,7.32,7.32,7.33-4.04,.01-7.31,3.29-7.32,7.34Z"/>
    <path class="cls-5" d="M262.47,115.39c0-9.13,7.39-16.53,16.49-16.53,1.87,0,3.66,.32,5.33,.89-3.54-2.98-8.11-4.78-13.09-4.78-11.25,0-20.38,9.14-20.38,20.42s9.12,20.42,20.38,20.42c4.98,0,9.55-1.8,13.09-4.78-1.67,.57-3.46,.89-5.33,.89-9.11,0-16.49-7.4-16.49-16.53Z"/>
    <path class="cls-5" d="M303.6,132.28c0,9.13-7.39,16.53-16.49,16.53-1.87,0-3.66-.32-5.33-.89,3.54,2.98,8.11,4.78,13.09,4.78,11.25,0,20.38-9.14,20.38-20.42s-9.12-20.42-20.38-20.42c-4.99,0-9.55,1.8-13.09,4.78,1.67-.57,3.46-.89,5.33-.89,9.11,0,16.49,7.4,16.49,16.53Z"/>
    <path class="cls-6" d="M121.89,156.37c-.01-4.05-3.29-7.33-7.32-7.33,4.04,0,7.31-3.29,7.32-7.33,.01,4.05,3.28,7.32,7.32,7.33-4.04,0-7.31,3.29-7.32,7.33Z"/>
  </g>
</svg>